# xmcd CD database file
#
# Track frame offsets:
#	150
#	62397
#	77330
#	92317
#	121037
#	171040
#	184015
#
# Disc length: 2786 seconds
#
# Revision: 0
# Processed by: cddbd v1.5.1PL0 Copyright (c) Steve Scherf et al.
# Submitted via: CDex 1.51
#
DISCID=3e0ae007
DTITLE=Bud Powell - Hot House
DYEAR=1963
DGENRE=Jazz
TTITLE0=Straight No Chaser
TTITLE1=Salt Peanuts
TTITLE2=Move
TTITLE3=Bean And The Boys
TTITLE4=Wee
TTITLE5=52nd Street
TTITLE6=Hot House
EXTD=YEAR: 1963
EXTT0=
EXTT1=
EXTT2=
EXTT3=
EXTT4=
EXTT5=
EXTT6=
PLAYORDER=
